# Blender v3.3.1 OBJ File: ''
# www.blender.org
mtllib test_objects.mtl
o Cube
v 1.000000 1.000000 -1.000000
v 1.000000 -1.000000 -1.000000
v 1.000000 1.000000 1.000000
v 1.000000 -1.000000 1.000000
v -1.000000 1.000000 -1.000000
v -1.000000 -1.000000 -1.000000
v -1.000000 1.000000 1.000000
v -1.000000 -1.000000 1.000000
vt 0.625000 0.500000
vt 0.875000 0.500000
vt 0.875000 0.750000
vt 0.625000 0.750000
vt 0.375000 0.750000
vt 0.625000 1.000000
vt 0.375000 1.000000
vt 0.375000 0.000000
vt 0.625000 0.000000
vt 0.625000 0.250000
vt 0.375000 0.250000
vt 0.125000 0.500000
vt 0.375000 0.500000
vt 0.125000 0.750000
vn 0.0000 1.0000 0.0000
vn 0.0000 0.0000 1.0000
vn -1.0000 0.0000 0.0000
vn 0.0000 -1.0000 0.0000
vn 1.0000 0.0000 0.0000
vn 0.0000 0.0000 -1.0000
usemtl Material
s off
f 1/1/1 5/2/1 7/3/1 3/4/1
f 4/5/2 3/4/2 7/6/2 8/7/2
f 8/8/3 7/9/3 5/10/3 6/11/3
f 6/12/4 2/13/4 4/5/4 8/14/4
f 2/13/5 1/1/5 3/4/5 4/5/5
f 6/11/6 5/10/6 1/1/6 2/13/6
o Cube_1d69fa43_Cube.001
v -0.500000 -0.500000 0.500000
v -0.500000 0.500000 0.500000
v -0.500000 -0.500000 -0.500000
v -0.500000 0.500000 -0.500000
v 0.500000 -0.500000 0.500000
v 0.500000 0.500000 0.500000
v 0.500000 -0.500000 -0.500000
v 0.500000 0.500000 -0.500000
vt 0.375000 0.000000
vt 0.625000 0.000000
vt 0.625000 0.250000
vt 0.375000 0.250000
vt 0.625000 0.500000
vt 0.375000 0.500000
vt 0.625000 0.750000
vt 0.375000 0.750000
vt 0.625000 1.000000
vt 0.375000 1.000000
vt 0.125000 0.500000
vt 0.125000 0.750000
vt 0.875000 0.500000
vt 0.875000 0.750000
vn -1.0000 0.0000 0.0000
vn 0.0000 0.0000 -1.0000
vn 1.0000 0.0000 0.0000
vn 0.0000 0.0000 1.0000
vn 0.0000 -1.0000 0.0000
vn 0.0000 1.0000 0.0000
usemtl None
s off
f 9/15/7 10/16/7 12/17/7 11/18/7
f 11/18/8 12/17/8 16/19/8 15/20/8
f 15/20/9 16/19/9 14/21/9 13/22/9
f 13/22/10 14/21/10 10/23/10 9/24/10
f 11/25/11 15/20/11 13/22/11 9/26/11
f 16/19/12 12/27/12 10/28/12 14/21/12
o Sphere_688029b5_Sphere
v 2.000000 0.191342 -0.461940
v 2.000000 0.000000 -0.500000
v 2.000000 -0.191342 -0.461940
v 2.000000 -0.461940 -0.191342
v 2.073223 0.461940 -0.176777
v 2.135299 0.353553 -0.326641
v 2.176777 0.191342 -0.426777
v 2.191342 0.000000 -0.461940
v 2.176777 -0.191342 -0.426777
v 2.135299 -0.353553 -0.326641
v 2.073223 -0.461940 -0.176777
v 2.135299 0.461940 -0.135299
v 2.250000 0.353553 -0.250000
v 2.326641 0.191342 -0.326641
v 2.353553 0.000000 -0.353553
v 2.326641 -0.191342 -0.326641
v 2.250000 -0.353553 -0.250000
v 2.135299 -0.461940 -0.135299
v 2.176777 0.461940 -0.073223
v 2.326641 0.353553 -0.135299
v 2.426777 0.191342 -0.176777
v 2.461940 0.000000 -0.191342
v 2.426777 -0.191342 -0.176777
v 2.326641 -0.353553 -0.135299
v 2.176777 -0.461940 -0.073223
v 2.191342 0.461940 0.000000
v 2.353553 0.353553 0.000000
v 2.461940 0.191342 0.000000
v 2.500000 0.000000 0.000000
v 2.461940 -0.191342 0.000000
v 2.353553 -0.353553 0.000000
v 2.191342 -0.461940 0.000000
v 2.176777 0.461940 0.073223
v 2.326641 0.353553 0.135299
v 2.426777 0.191342 0.176777
v 2.461940 0.000000 0.191342
v 2.426777 -0.191342 0.176777
v 2.326641 -0.353553 0.135299
v 2.176777 -0.461940 0.073223
v 2.135299 0.461940 0.135299
v 2.250000 0.353553 0.250000
v 2.326641 0.191342 0.326641
v 2.353553 0.000000 0.353553
v 2.326641 -0.191342 0.326641
v 2.250000 -0.353553 0.250000
v 2.135299 -0.461940 0.135299
v 2.073223 0.461940 0.176777
v 2.135299 0.353553 0.326641
v 2.176777 0.191342 0.426777
v 2.191342 0.000000 0.461940
v 2.176777 -0.191342 0.426777
v 2.135299 -0.353553 0.326641
v 2.073223 -0.461940 0.176777
v 2.000000 0.461940 0.191342
v 2.000000 0.353553 0.353553
v 2.000000 0.191342 0.461940
v 2.000000 0.000000 0.500000
v 2.000000 -0.191342 0.461940
v 2.000000 -0.353553 0.353553
v 2.000000 -0.461940 0.191342
v 2.000000 -0.500000 0.000000
v 2.000000 0.500000 0.000000
v 1.926777 0.461940 0.176777
v 1.864701 0.353553 0.326641
v 1.823223 0.191342 0.426777
v 1.808658 0.000000 0.461940
v 1.823223 -0.191342 0.426777
v 1.864701 -0.353553 0.326641
v 1.926777 -0.461940 0.176777
v 1.864701 0.461940 0.135299
v 1.750000 0.353553 0.250000
v 1.673359 0.191342 0.326641
v 1.646446 0.000000 0.353553
v 1.673359 -0.191342 0.326641
v 1.750000 -0.353553 0.250000
v 1.864701 -0.461940 0.135299
v 1.823223 0.461940 0.073223
v 1.673359 0.353553 0.135299
v 1.573223 0.191342 0.176777
v 1.538060 0.000000 0.191341
v 1.573223 -0.191342 0.176777
v 1.673359 -0.353553 0.135299
v 1.823223 -0.461940 0.073223
v 1.808658 0.461940 -0.000000
v 1.646447 0.353553 -0.000000
v 1.538060 0.191342 -0.000000
v 1.500000 0.000000 -0.000000
v 1.538060 -0.191342 -0.000000
v 1.646447 -0.353553 -0.000000
v 1.808658 -0.461940 -0.000000
v 1.823223 0.461940 -0.073223
v 1.673359 0.353553 -0.135299
v 1.573223 0.191342 -0.176777
v 1.538060 0.000000 -0.191342
v 1.573223 -0.191342 -0.176777
v 1.673359 -0.353553 -0.135299
v 1.823223 -0.461940 -0.073223
v 1.864701 0.461940 -0.135299
v 1.750000 0.353553 -0.250000
v 1.673359 0.191342 -0.326641
v 1.646447 0.000000 -0.353554
v 1.673359 -0.191342 -0.326641
v 1.750000 -0.353553 -0.250000
v 1.864701 -0.461940 -0.135299
v 1.926777 0.461940 -0.176777
v 1.864701 0.353553 -0.326641
v 1.823224 0.191342 -0.426777
v 1.808659 0.000000 -0.461940
v 1.823224 -0.191342 -0.426777
v 1.864701 -0.353553 -0.326641
v 1.926777 -0.461940 -0.176777
v 2.000000 0.461940 -0.191342
v 2.000000 0.353553 -0.353553
v 2.000000 -0.353553 -0.353553
vt 0.750000 0.375000
vt 0.750000 0.500000
vt 0.687500 0.500000
vt 0.687500 0.375000
vt 0.750000 0.625000
vt 0.750000 0.750000
vt 0.687500 0.750000
vt 0.687500 0.625000
vt 0.750000 0.875000
vt 0.718750 1.000000
vt 0.687500 0.875000
vt 0.718750 0.000000
vt 0.750000 0.125000
vt 0.687500 0.125000
vt 0.750000 0.250000
vt 0.687500 0.250000
vt 0.656250 0.000000
vt 0.625000 0.125000
vt 0.625000 0.375000
vt 0.625000 0.250000
vt 0.625000 0.625000
vt 0.625000 0.500000
vt 0.625000 0.875000
vt 0.625000 0.750000
vt 0.656250 1.000000
vt 0.562500 0.875000
vt 0.562500 0.750000
vt 0.562500 0.250000
vt 0.562500 0.125000
vt 0.562500 0.500000
vt 0.562500 0.375000
vt 0.562500 0.625000
vt 0.593750 1.000000
vt 0.593750 0.000000
vt 0.500000 0.250000
vt 0.500000 0.125000
vt 0.500000 0.500000
vt 0.500000 0.375000
vt 0.500000 0.750000
vt 0.500000 0.625000
vt 0.531250 1.000000
vt 0.500000 0.875000
vt 0.531250 0.000000
vt 0.468750 1.000000
vt 0.437500 0.875000
vt 0.468750 0.000000
vt 0.437500 0.125000
vt 0.437500 0.375000
vt 0.437500 0.250000
vt 0.437500 0.625000
vt 0.437500 0.500000
vt 0.437500 0.750000
vt 0.375000 0.375000
vt 0.375000 0.250000
vt 0.375000 0.625000
vt 0.375000 0.500000
vt 0.375000 0.875000
vt 0.375000 0.750000
vt 0.375000 0.125000
vt 0.406250 1.000000
vt 0.406250 0.000000
vt 0.312500 0.250000
vt 0.312500 0.125000
vt 0.312500 0.500000
vt 0.312500 0.375000
vt 0.312500 0.750000
vt 0.312500 0.625000
vt 0.343750 1.000000
vt 0.312500 0.875000
vt 0.343750 0.000000
vt 0.250000 0.500000
vt 0.250000 0.375000
vt 0.250000 0.750000
vt 0.250000 0.625000
vt 0.281250 1.000000
vt 0.250000 0.875000
vt 0.281250 0.000000
vt 0.250000 0.125000
vt 0.250000 0.250000
vt 0.218750 0.000000
vt 0.187500 0.125000
vt 0.187500 0.375000
vt 0.187500 0.250000
vt 0.187500 0.625000
vt 0.187500 0.500000
vt 0.187500 0.875000
vt 0.187500 0.750000
vt 0.218750 1.000000
vt 0.125000 0.625000
vt 0.125000 0.500000
vt 0.125000 0.875000
vt 0.125000 0.750000
vt 0.125000 0.250000
vt 0.125000 0.125000
vt 0.125000 0.375000
vt 0.156250 1.000000
vt 0.156250 0.000000
vt 0.062500 0.250000
vt 0.062500 0.125000
vt 0.062500 0.500000
vt 0.062500 0.375000
vt 0.062500 0.750000
vt 0.062500 0.625000
vt 0.093750 1.000000
vt 0.062500 0.875000
vt 0.093750 0.000000
vt 0.000000 0.750000
vt 0.000000 0.625000
vt 0.031250 1.000000
vt 0.000000 0.875000
vt 0.031250 0.000000
vt 0.000000 0.125000
vt 0.000000 0.375000
vt 0.000000 0.250000
vt 0.000000 0.500000
vt 0.968750 0.000000
vt 1.000000 0.125000
vt 0.937500 0.125000
vt 1.000000 0.250000
vt 1.000000 0.375000
vt 0.937500 0.375000
vt 0.937500 0.250000
vt 1.000000 0.500000
vt 1.000000 0.625000
vt 0.937500 0.625000
vt 0.937500 0.500000
vt 1.000000 0.750000
vt 1.000000 0.875000
vt 0.937500 0.875000
vt 0.937500 0.750000
vt 0.968750 1.000000
vt 0.875000 0.875000
vt 0.875000 0.750000
vt 0.875000 0.250000
vt 0.875000 0.125000
vt 0.875000 0.500000
vt 0.875000 0.375000
vt 0.875000 0.625000
vt 0.906250 1.000000
vt 0.906250 0.000000
vt 0.812500 0.250000
vt 0.812500 0.125000
vt 0.812500 0.500000
vt 0.812500 0.375000
vt 0.812500 0.750000
vt 0.812500 0.625000
vt 0.843750 1.000000
vt 0.812500 0.875000
vt 0.843750 0.000000
vt 0.781250 1.000000
vt 0.781250 0.000000
vn 0.1915 -0.1915 -0.9626
vn 0.1632 0.5481 -0.8203
vn 0.0388 0.9800 -0.1949
vn 0.0388 -0.9800 -0.1949
vn 0.1632 -0.5481 -0.8203
vn 0.1915 0.1915 -0.9626
vn 0.1098 0.8264 -0.5522
vn 0.1098 -0.8264 -0.5522
vn 0.1104 -0.9800 -0.1653
vn 0.4647 -0.5481 -0.6954
vn 0.5453 0.1915 -0.8161
vn 0.3128 0.8264 -0.4681
vn 0.3128 -0.8264 -0.4681
vn 0.5453 -0.1915 -0.8161
vn 0.4647 0.5481 -0.6954
vn 0.1104 0.9800 -0.1653
vn 0.4681 0.8264 -0.3128
vn 0.4681 -0.8264 -0.3128
vn 0.8161 -0.1915 -0.5453
vn 0.6954 0.5481 -0.4647
vn 0.1653 0.9800 -0.1104
vn 0.1653 -0.9800 -0.1104
vn 0.6954 -0.5481 -0.4647
vn 0.8161 0.1915 -0.5453
vn 0.5522 -0.8264 -0.1098
vn 0.9626 -0.1915 -0.1915
vn 0.8203 0.5481 -0.1632
vn 0.1949 0.9800 -0.0388
vn 0.1949 -0.9800 -0.0388
vn 0.8203 -0.5481 -0.1632
vn 0.9626 0.1915 -0.1915
vn 0.5522 0.8264 -0.1098
vn 0.1949 0.9800 0.0388
vn 0.1949 -0.9800 0.0388
vn 0.8203 -0.5481 0.1632
vn 0.9626 0.1915 0.1915
vn 0.5522 0.8264 0.1098
vn 0.5522 -0.8264 0.1098
vn 0.9626 -0.1915 0.1915
vn 0.8203 0.5481 0.1632
vn 0.6954 -0.5481 0.4647
vn 0.8161 0.1915 0.5453
vn 0.4681 0.8264 0.3128
vn 0.4681 -0.8264 0.3128
vn 0.8161 -0.1915 0.5453
vn 0.6954 0.5481 0.4647
vn 0.1653 0.9800 0.1104
vn 0.1653 -0.9800 0.1104
vn 0.3128 -0.8264 0.4681
vn 0.5453 -0.1915 0.8161
vn 0.4647 0.5481 0.6954
vn 0.1104 0.9800 0.1653
vn 0.1104 -0.9800 0.1653
vn 0.4647 -0.5481 0.6954
vn 0.5453 0.1915 0.8161
vn 0.3128 0.8264 0.4681
vn 0.1915 -0.1915 0.9626
vn 0.1632 0.5481 0.8203
vn 0.0388 0.9800 0.1949
vn 0.0388 -0.9800 0.1949
vn 0.1632 -0.5481 0.8203
vn 0.1915 0.1915 0.9626
vn 0.1098 0.8264 0.5522
vn 0.1098 -0.8264 0.5522
vn -0.0388 -0.9800 0.1949
vn -0.1632 -0.5481 0.8203
vn -0.1915 0.1915 0.9626
vn -0.1098 0.8264 0.5522
vn -0.1098 -0.8264 0.5522
vn -0.1915 -0.1915 0.9626
vn -0.1632 0.5481 0.8203
vn -0.0388 0.9800 0.1949
vn -0.5453 0.1915 0.8161
vn -0.3128 0.8264 0.4681
vn -0.3128 -0.8264 0.4681
vn -0.5453 -0.1915 0.8161
vn -0.4647 0.5481 0.6954
vn -0.1104 0.9800 0.1653
vn -0.1104 -0.9800 0.1653
vn -0.4647 -0.5481 0.6954
vn -0.4681 -0.8264 0.3128
vn -0.8161 -0.1915 0.5453
vn -0.6954 0.5481 0.4647
vn -0.1653 0.9800 0.1104
vn -0.1653 -0.9800 0.1104
vn -0.6954 -0.5481 0.4647
vn -0.8161 0.1915 0.5453
vn -0.4681 0.8264 0.3128
vn -0.8203 0.5481 0.1632
vn -0.1949 0.9800 0.0388
vn -0.1949 -0.9800 0.0388
vn -0.8203 -0.5481 0.1632
vn -0.9626 0.1915 0.1915
vn -0.5522 0.8264 0.1098
vn -0.5522 -0.8264 0.1098
vn -0.9626 -0.1915 0.1915
vn -0.1949 -0.9800 -0.0388
vn -0.8203 -0.5481 -0.1632
vn -0.9626 0.1915 -0.1915
vn -0.5522 0.8264 -0.1098
vn -0.5522 -0.8264 -0.1098
vn -0.9626 -0.1915 -0.1915
vn -0.8203 0.5481 -0.1632
vn -0.1949 0.9800 -0.0388
vn -0.4681 0.8264 -0.3128
vn -0.4681 -0.8264 -0.3128
vn -0.8161 -0.1915 -0.5453
vn -0.6954 0.5481 -0.4647
vn -0.1653 0.9800 -0.1104
vn -0.1653 -0.9800 -0.1104
vn -0.6954 -0.5481 -0.4647
vn -0.8161 0.1915 -0.5453
vn -0.3128 -0.8264 -0.4681
vn -0.5453 -0.1915 -0.8161
vn -0.4647 0.5481 -0.6954
vn -0.1104 0.9800 -0.1653
vn -0.1104 -0.9800 -0.1653
vn -0.4647 -0.5481 -0.6954
vn -0.5453 0.1915 -0.8161
vn -0.3128 0.8264 -0.4681
vn -0.0388 0.9800 -0.1949
vn -0.0388 -0.9800 -0.1949
vn -0.1632 -0.5481 -0.8203
vn -0.1915 0.1915 -0.9626
vn -0.1098 0.8264 -0.5522
vn -0.1098 -0.8264 -0.5522
vn -0.1915 -0.1915 -0.9626
vn -0.1632 0.5481 -0.8203
usemtl None
s off
f 19/29/13 18/30/13 24/31/13 25/32/13
f 17/33/14 129/34/14 22/35/14 23/36/14
f 128/37/15 78/38/15 21/39/15
f 77/40/16 20/41/16 27/42/16
f 130/43/17 19/29/17 25/32/17 26/44/17
f 18/30/18 17/33/18 23/36/18 24/31/18
f 129/34/19 128/37/19 21/39/19 22/35/19
f 20/41/20 130/43/20 26/44/20 27/42/20
f 77/45/21 27/42/21 34/46/21
f 26/44/22 25/32/22 32/47/22 33/48/22
f 24/31/23 23/36/23 30/49/23 31/50/23
f 22/35/24 21/39/24 28/51/24 29/52/24
f 27/42/25 26/44/25 33/48/25 34/46/25
f 25/32/26 24/31/26 31/50/26 32/47/26
f 23/36/27 22/35/27 29/52/27 30/49/27
f 21/39/28 78/53/28 28/51/28
f 29/52/29 28/51/29 35/54/29 36/55/29
f 34/46/30 33/48/30 40/56/30 41/57/30
f 32/47/31 31/50/31 38/58/31 39/59/31
f 30/49/32 29/52/32 36/55/32 37/60/32
f 28/51/33 78/61/33 35/54/33
f 77/62/34 34/46/34 41/57/34
f 33/48/35 32/47/35 39/59/35 40/56/35
f 31/50/36 30/49/36 37/60/36 38/58/36
f 41/57/37 40/56/37 47/63/37 48/64/37
f 39/59/38 38/58/38 45/65/38 46/66/38
f 37/60/39 36/55/39 43/67/39 44/68/39
f 35/54/40 78/69/40 42/70/40
f 77/71/41 41/57/41 48/64/41
f 40/56/42 39/59/42 46/66/42 47/63/42
f 38/58/43 37/60/43 44/68/43 45/65/43
f 36/55/44 35/54/44 42/70/44 43/67/44
f 42/70/45 78/72/45 49/73/45
f 77/74/46 48/64/46 55/75/46
f 47/63/47 46/66/47 53/76/47 54/77/47
f 45/65/48 44/68/48 51/78/48 52/79/48
f 43/67/49 42/70/49 49/73/49 50/80/49
f 48/64/50 47/63/50 54/77/50 55/75/50
f 46/66/51 45/65/51 52/79/51 53/76/51
f 44/68/52 43/67/52 50/80/52 51/78/52
f 54/77/53 53/76/53 60/81/53 61/82/53
f 52/79/54 51/78/54 58/83/54 59/84/54
f 50/80/55 49/73/55 56/85/55 57/86/55
f 55/75/56 54/77/56 61/82/56 62/87/56
f 53/76/57 52/79/57 59/84/57 60/81/57
f 51/78/58 50/80/58 57/86/58 58/83/58
f 49/73/59 78/88/59 56/85/59
f 77/89/60 55/75/60 62/87/60
f 62/87/61 61/82/61 68/90/61 69/91/61
f 60/81/62 59/84/62 66/92/62 67/93/62
f 58/83/63 57/86/63 64/94/63 65/95/63
f 56/85/64 78/96/64 63/97/64
f 77/98/65 62/87/65 69/91/65
f 61/82/66 60/81/66 67/93/66 68/90/66
f 59/84/67 58/83/67 65/95/67 66/92/67
f 57/86/68 56/85/68 63/97/68 64/94/68
f 67/93/69 66/92/69 73/99/69 74/100/69
f 65/95/70 64/94/70 71/101/70 72/102/70
f 63/97/71 78/103/71 70/104/71
f 77/105/72 69/91/72 76/106/72
f 68/90/73 67/93/73 74/100/73 75/107/73
f 66/92/74 65/95/74 72/102/74 73/99/74
f 64/94/75 63/97/75 70/104/75 71/101/75
f 69/91/76 68/90/76 75/107/76 76/106/76
f 77/108/77 76/106/77 85/109/77
f 75/107/78 74/100/78 83/110/78 84/111/78
f 73/99/79 72/102/79 81/112/79 82/113/79
f 71/101/80 70/104/80 79/114/80 80/115/80
f 76/106/81 75/107/81 84/111/81 85/109/81
f 74/100/82 73/99/82 82/113/82 83/110/82
f 72/102/83 71/101/83 80/115/83 81/112/83
f 70/104/84 78/116/84 79/114/84
f 82/113/85 81/112/85 88/117/85 89/118/85
f 80/115/86 79/114/86 86/119/86 87/120/86
f 85/109/87 84/111/87 91/121/87 92/122/87
f 83/110/88 82/113/88 89/118/88 90/123/88
f 81/112/89 80/115/89 87/120/89 88/117/89
f 79/114/90 78/124/90 86/119/90
f 77/125/91 85/109/91 92/122/91
f 84/111/92 83/110/92 90/123/92 91/121/92
f 92/122/93 91/121/93 98/126/93 99/127/93
f 90/123/94 89/118/94 96/128/94 97/129/94
f 88/117/95 87/120/95 94/130/95 95/131/95
f 86/119/96 78/132/96 93/133/96
f 77/134/97 92/122/97 99/127/97
f 91/121/98 90/123/98 97/129/98 98/126/98
f 89/118/99 88/117/99 95/131/99 96/128/99
f 87/120/100 86/119/100 93/133/100 94/130/100
f 95/131/101 94/130/101 101/135/101 102/136/101
f 93/133/102 78/137/102 100/138/102
f 77/139/103 99/127/103 106/140/103
f 98/126/104 97/129/104 104/141/104 105/142/104
f 96/128/105 95/131/105 102/136/105 103/143/105
f 94/130/106 93/133/106 100/138/106 101/135/106
f 99/127/107 98/126/107 105/142/107 106/140/107
f 97/129/108 96/128/108 103/143/108 104/141/108
f 77/144/109 106/145/109 113/146/109
f 105/147/110 104/148/110 111/149/110 112/150/110
f 103/151/111 102/152/111 109/153/111 110/154/111
f 101/155/112 100/156/112 107/157/112 108/158/112
f 106/145/113 105/147/113 112/150/113 113/146/113
f 104/148/114 103/151/114 110/154/114 111/149/114
f 102/152/115 101/155/115 108/158/115 109/153/115
f 100/156/116 78/159/116 107/157/116
f 108/158/117 107/157/117 114/160/117 115/161/117
f 113/146/118 112/150/118 119/162/118 120/163/118
f 111/149/119 110/154/119 117/164/119 118/165/119
f 109/153/120 108/158/120 115/161/120 116/166/120
f 107/157/121 78/167/121 114/160/121
f 77/168/122 113/146/122 120/163/122
f 112/150/123 111/149/123 118/165/123 119/162/123
f 110/154/124 109/153/124 116/166/124 117/164/124
f 120/163/125 119/162/125 126/169/125 127/170/125
f 118/165/126 117/164/126 124/171/126 125/172/126
f 116/166/127 115/161/127 122/173/127 123/174/127
f 114/160/128 78/175/128 121/176/128
f 77/177/129 120/163/129 127/170/129
f 119/162/130 118/165/130 125/172/130 126/169/130
f 117/164/131 116/166/131 123/174/131 124/171/131
f 115/161/132 114/160/132 121/176/132 122/173/132
f 121/176/133 78/178/133 128/37/133
f 77/179/134 127/170/134 20/41/134
f 126/169/135 125/172/135 19/29/135 130/43/135
f 124/171/136 123/174/136 17/33/136 18/30/136
f 122/173/137 121/176/137 128/37/137 129/34/137
f 127/170/138 126/169/138 130/43/138 20/41/138
f 125/172/139 124/171/139 18/30/139 19/29/139
f 123/174/140 122/173/140 129/34/140 17/33/140
